<svg width="500" height="334" viewBox="0 0 500 334" fill="none" xmlns="http://www.w3.org/2000/svg">
<path d="M444.632 100.18L438.252 131.08L434.145 127.073L427.158 132.06L421.818 125.427L409.845 134.133L399.612 117.02L388.198 123.707L383.672 117.467L369.178 125.633L364.818 116.293L374.978 67.0867L429.445 78.3334L444.632 100.18Z" fill="#EBEBEB"/>
<path d="M429.447 78.3334L444.634 100.18L425.74 96.28L429.447 78.3334Z" fill="#DBDBDB"/>
<path d="M436.894 137.253L427.54 182.587L354.174 167.44L363.46 122.473L367.82 131.807L382.32 123.64L386.84 129.88L398.26 123.2L408.487 140.313L420.467 131.607L425.8 138.233L432.794 133.253L436.894 137.253Z" fill="#EBEBEB"/>
<path d="M331.886 131.94L257.12 136.567L251.18 40.5934L306.7 37.1534L327.08 54.2534L331.886 131.94Z" fill="#EBEBEB"/>
<path d="M306.699 37.1534L327.079 54.2534L307.826 55.4467L306.699 37.1534Z" fill="#DBDBDB"/>
<path d="M285.999 101.733L285.706 99.5667C284.952 95.08 286.179 90.06 290.079 84.8134C293.599 80.1467 295.506 76.8134 295.292 73.0267C295.052 68.76 292.219 66.0667 286.946 66.28C283.932 66.4366 281.037 67.5061 278.646 69.3467L276.346 64.1934C279.012 62.0267 283.679 60.4267 288.112 60.1934C297.732 59.66 302.412 65.3534 302.779 71.7067C303.099 77.3934 300.152 81.6667 296.406 86.66C292.966 91.2134 291.839 94.9667 292.326 99.2134L292.532 101.387L285.999 101.733ZM284.812 113.54C284.639 110.447 286.606 108.153 289.532 107.993C292.459 107.833 294.592 109.887 294.766 112.987C294.926 115.913 293.132 118.273 290.039 118.447C287.086 118.613 284.952 116.467 284.786 113.54H284.812Z" fill="#DBDBDB"/>
<path d="M98.9873 85.4067L91.4673 82L90.4207 84.3C90.2661 84.6287 90.025 84.9091 89.7231 85.1111C89.4213 85.3132 89.0701 85.4292 88.7073 85.4467C88.2941 85.4602 87.8821 85.5003 87.474 85.5667C87.1157 85.6199 86.7498 85.5748 86.4151 85.4363C86.0805 85.2977 85.7898 85.0709 85.574 84.78L84.1007 82.72L77.3873 87.5334L78.8607 89.5934C79.0656 89.8907 79.1862 90.238 79.2096 90.5983C79.2331 90.9587 79.1586 91.3186 78.994 91.64C78.8039 92.0067 78.6326 92.3827 78.4807 92.7667C78.3486 93.1053 78.1267 93.4015 77.839 93.6235C77.5512 93.8455 77.2084 93.9849 76.8473 94.0267L74.334 94.2734L75.1407 102.493L77.6673 102.24C78.0297 102.211 78.3931 102.281 78.7184 102.444C79.0438 102.606 79.3188 102.853 79.514 103.16C79.6206 103.333 79.734 103.5 79.854 103.667C79.974 103.833 80.094 103.993 80.2207 104.153C80.4507 104.433 80.5987 104.772 80.6481 105.13C80.6975 105.489 80.6465 105.855 80.5007 106.187L79.4473 108.507L86.974 111.92L88.0207 109.607C88.1766 109.278 88.4192 108.999 88.7223 108.798C89.0253 108.597 89.3774 108.482 89.7407 108.467C90.1493 108.45 90.5566 108.41 90.9607 108.347C91.3189 108.294 91.6849 108.339 92.0195 108.477C92.3541 108.616 92.6449 108.842 92.8606 109.133L94.334 111.193L101.054 106.38L99.5806 104.32C99.3694 104.025 99.245 103.678 99.2214 103.316C99.1978 102.954 99.2761 102.593 99.4473 102.273C99.633 101.909 99.7999 101.535 99.9473 101.153C100.076 100.812 100.296 100.514 100.585 100.291C100.873 100.069 101.218 99.9308 101.581 99.8934L104.107 99.64L103.294 91.42L100.767 91.6667C100.407 91.6983 100.045 91.6298 99.7219 91.4686C99.3983 91.3074 99.1256 91.0599 98.934 90.7534C98.8206 90.58 98.7073 90.4134 98.5873 90.2467C98.4673 90.08 98.3473 89.9134 98.2207 89.76C97.9921 89.4767 97.8453 89.1363 97.796 88.7756C97.7466 88.415 97.7966 88.0477 97.9407 87.7134L98.9873 85.4067ZM94.7207 93.0134C95.5003 94.1013 95.9397 95.396 95.9835 96.7337C96.0272 98.0713 95.6733 99.392 94.9664 100.529C94.2596 101.665 93.2316 102.566 92.0124 103.119C90.7932 103.671 89.4377 103.849 88.1172 103.631C86.7967 103.413 85.5705 102.808 84.5938 101.893C83.6172 100.978 82.9338 99.7934 82.6302 98.4899C82.3265 97.1864 82.4163 95.8221 82.8881 94.5696C83.3599 93.3171 84.1925 92.2326 85.2807 91.4534C86.7394 90.4087 88.5534 89.9862 90.3237 90.2787C92.0939 90.5712 93.6755 91.5549 94.7207 93.0134Z" fill="#EBEBEB"/>
<path d="M438.921 194.473L433.907 197.367L434.794 198.9C434.926 199.12 434.992 199.374 434.984 199.63C434.976 199.887 434.894 200.136 434.747 200.347C434.594 200.587 434.447 200.833 434.314 201.093C434.204 201.323 434.031 201.517 433.815 201.652C433.599 201.787 433.349 201.856 433.094 201.853H431.334V207.647H433.107C433.362 207.644 433.612 207.714 433.828 207.848C434.045 207.983 434.218 208.177 434.327 208.407C434.461 208.667 434.607 208.913 434.761 209.153C434.907 209.364 434.989 209.613 434.997 209.87C435.006 210.126 434.94 210.38 434.807 210.6L433.921 212.133L438.934 215.027L439.827 213.487C439.957 213.268 440.144 213.09 440.369 212.972C440.594 212.855 440.847 212.802 441.101 212.82H441.954C442.207 212.803 442.46 212.856 442.685 212.974C442.91 213.091 443.097 213.269 443.227 213.487L444.121 215.033L449.127 212.14L448.241 210.6C448.115 210.379 448.053 210.127 448.062 209.872C448.072 209.618 448.152 209.371 448.294 209.16C448.447 208.92 448.594 208.667 448.727 208.413C448.837 208.183 449.01 207.99 449.226 207.855C449.442 207.72 449.693 207.65 449.947 207.653H451.721V201.86H449.934C449.679 201.863 449.429 201.793 449.213 201.659C448.997 201.524 448.824 201.33 448.714 201.1C448.581 200.847 448.434 200.593 448.281 200.353C448.139 200.142 448.058 199.895 448.049 199.641C448.039 199.387 448.101 199.135 448.227 198.913L449.114 197.373L444.107 194.48L443.214 196C443.085 196.218 442.897 196.397 442.672 196.514C442.447 196.632 442.194 196.685 441.941 196.667H441.514H441.087C440.833 196.684 440.58 196.631 440.354 196.513C440.128 196.395 439.939 196.218 439.807 196L438.921 194.473ZM441.514 200.007C442.453 200.005 443.372 200.283 444.154 200.804C444.935 201.325 445.545 202.066 445.905 202.934C446.265 203.801 446.359 204.756 446.176 205.678C445.993 206.599 445.541 207.446 444.877 208.11C444.213 208.774 443.366 209.226 442.445 209.409C441.524 209.592 440.569 209.498 439.701 209.137C438.833 208.777 438.092 208.168 437.571 207.386C437.05 206.605 436.773 205.686 436.774 204.747C436.773 204.124 436.895 203.507 437.133 202.931C437.371 202.355 437.72 201.832 438.16 201.391C438.6 200.95 439.123 200.6 439.699 200.362C440.274 200.123 440.891 200 441.514 200V200.007Z" fill="#EBEBEB"/>
<path d="M114.2 60.7734L109.606 64.2934L110.666 65.7001C110.824 65.9005 110.922 66.1421 110.946 66.3962C110.971 66.6503 110.923 66.9061 110.806 67.1334C110.679 67.3929 110.567 67.6601 110.473 67.9334C110.391 68.1742 110.243 68.3872 110.046 68.5486C109.85 68.7099 109.612 68.8132 109.36 68.8467L107.6 69.0734L108.346 74.8134L110.106 74.5867C110.362 74.551 110.624 74.5884 110.859 74.6945C111.095 74.8007 111.296 74.9713 111.44 75.1867C111.6 75.4186 111.774 75.6412 111.96 75.8534C112.131 76.0423 112.245 76.2765 112.288 76.5282C112.33 76.7799 112.3 77.0386 112.2 77.2734L111.533 78.9134L116.866 81.1334L117.533 79.4934C117.632 79.2581 117.795 79.0554 118.004 78.9081C118.212 78.7608 118.458 78.6749 118.713 78.6601L119.14 78.6134L119.56 78.5467C119.806 78.5002 120.061 78.5223 120.296 78.6104C120.531 78.6986 120.738 78.8495 120.893 79.0467L121.98 80.4667L126.573 76.9467L125.5 75.5401C125.345 75.3368 125.249 75.0944 125.225 74.84C125.2 74.5856 125.247 74.3293 125.36 74.1001C125.486 73.8423 125.597 73.5774 125.693 73.3067C125.775 73.0659 125.923 72.8529 126.12 72.6915C126.316 72.5302 126.554 72.4269 126.806 72.3934L128.566 72.1667L127.82 66.4267L126.06 66.6534C125.804 66.6898 125.543 66.6534 125.308 66.5485C125.072 66.4435 124.87 66.2743 124.726 66.0601C124.56 65.8201 124.386 65.5934 124.2 65.3934C124.044 65.2005 123.944 64.9693 123.909 64.7241C123.873 64.479 123.905 64.2289 124 64.0001L124.666 62.3601L119.333 60.1401L118.666 61.7801C118.566 62.0144 118.402 62.2164 118.194 62.3635C117.986 62.5106 117.741 62.5971 117.486 62.6134L117.06 62.6534L116.666 62.6667C116.42 62.7132 116.165 62.6912 115.93 62.603C115.695 62.5149 115.488 62.364 115.333 62.1667L114.2 60.7734ZM117.486 65.9267C118.415 65.8073 119.358 65.9657 120.197 66.3817C121.036 66.7978 121.732 67.4529 122.199 68.2645C122.666 69.0761 122.882 70.0078 122.82 70.942C122.758 71.8763 122.421 72.7712 121.851 73.514C121.281 74.2567 120.503 74.814 119.617 75.1155C118.731 75.417 117.775 75.4493 116.87 75.2082C115.965 74.9671 115.152 74.4635 114.533 73.7608C113.915 73.0582 113.518 72.188 113.393 71.2601C113.31 70.6408 113.35 70.0112 113.51 69.4075C113.671 68.8037 113.95 68.2378 114.33 67.7421C114.711 67.2464 115.186 66.8309 115.727 66.5193C116.269 66.2078 116.867 66.0064 117.486 65.9267Z" fill="#EBEBEB"/>
<path d="M79.8797 211.187C80.1302 204.742 80.0411 198.289 79.613 191.853C78.6592 178.565 76.6326 165.375 73.553 152.413C71.8597 145.12 69.7797 137.947 67.6064 130.78C67.5397 130.56 67.193 130.62 67.253 130.847C73.9664 156.113 79.473 182.18 79.093 208.447C78.9864 215.78 78.133 223.013 77.4397 230.32C77.4397 230.513 77.7397 230.593 77.7864 230.393C79.1664 224.12 79.6197 217.573 79.8797 211.187Z" fill="#EBEBEB"/>
<path d="M67.2515 130.827C67.2515 130.827 57.0915 156.627 59.3648 162.667C61.6381 168.707 66.3315 170 66.3315 170C66.3315 170 60.1115 178.88 64.4581 187.207C68.8048 195.533 78.4581 195.14 79.1248 204.58C79.1048 204.627 79.6381 165.153 67.2515 130.827Z" fill="#EBEBEB"/>
<path d="M77.9985 188.327C78.0149 188.284 78.0149 188.236 77.9985 188.193C76.665 170.579 73.3599 153.171 68.1451 136.293C68.1451 136.247 68.0451 136.26 68.0585 136.293C70.0718 143.849 71.8496 151.436 73.3918 159.053C72.0259 157.759 70.3572 156.829 68.5385 156.347C68.5385 156.347 68.4851 156.387 68.5385 156.4C70.4491 157.1 72.167 158.242 73.5518 159.733C73.8451 161.233 74.1385 162.727 74.4118 164.227C72.1385 161.687 68.9918 160.427 65.8385 159.227C65.8313 159.23 65.8253 159.235 65.821 159.241C65.8167 159.248 65.8145 159.256 65.8145 159.263C65.8145 159.271 65.8167 159.279 65.821 159.285C65.8253 159.292 65.8313 159.297 65.8385 159.3C69.1251 160.633 72.3918 162.353 74.6185 165.187C75.3918 169.467 76.0718 173.762 76.6585 178.073C75.017 176.354 72.912 175.147 70.5985 174.6C70.5251 174.6 70.4851 174.687 70.5585 174.707C72.935 175.407 75.0567 176.782 76.6651 178.667H76.7051C76.9051 180.178 77.0962 181.696 77.2785 183.22C76.0087 182.145 74.5749 181.281 73.0318 180.66C72.9918 180.66 72.9651 180.707 73.0318 180.72C74.6066 181.402 76.0487 182.357 77.2918 183.54C77.2918 183.54 77.3251 183.54 77.3451 183.54C77.5118 184.987 77.6785 186.433 77.8251 187.88C75.5359 185.113 72.5649 182.989 69.2051 181.72C69.191 181.72 69.1774 181.726 69.1674 181.736C69.1574 181.746 69.1518 181.759 69.1518 181.773C69.1518 181.788 69.1574 181.801 69.1674 181.811C69.1774 181.821 69.191 181.827 69.2051 181.827C72.5227 183.289 75.4369 185.533 77.6985 188.367C77.7234 188.398 77.7569 188.421 77.795 188.433C77.833 188.444 77.8736 188.445 77.9118 188.433C78.1318 190.653 78.3318 192.873 78.4918 195.1C78.4918 195.133 78.5451 195.133 78.5451 195.1C78.3718 192.864 78.1896 190.607 77.9985 188.327Z" fill="white"/>
<path d="M69.8322 153.807C67.9922 152.662 65.8902 152.005 63.7255 151.9C63.7149 151.9 63.7048 151.904 63.6973 151.912C63.6898 151.919 63.6855 151.929 63.6855 151.94C63.6855 151.951 63.6898 151.961 63.6973 151.968C63.7048 151.976 63.7149 151.98 63.7255 151.98C65.8184 152.377 67.8494 153.049 69.7655 153.98C69.8455 154 69.9055 153.86 69.8322 153.807Z" fill="white"/>
<path d="M71.0667 181.12C69.6525 180.308 68.0953 179.776 66.48 179.553C66.4267 179.553 66.42 179.627 66.48 179.64C68.0573 179.956 69.583 180.49 71.0134 181.227C71.0734 181.26 71.1267 181.153 71.0667 181.12Z" fill="white"/>
<path d="M106.599 163.113C102.301 166.084 98.3535 169.533 94.8323 173.393C91.201 177.481 88.4 182.236 86.5856 187.393C82.7242 198.139 80.6479 209.444 80.439 220.86C80.3095 227.182 80.9158 233.498 82.2456 239.68C82.2564 239.725 82.2841 239.764 82.3229 239.789C82.3617 239.814 82.4086 239.823 82.454 239.815C82.4995 239.806 82.5398 239.781 82.5668 239.743C82.5938 239.706 82.6053 239.659 82.599 239.613C80.9441 228.704 81.0071 217.603 82.7856 206.713C84.5323 196.047 87.2723 184.433 94.059 175.76C97.7523 171.033 102.359 167.32 106.912 163.48C107.152 163.267 106.846 162.94 106.599 163.113Z" fill="#EBEBEB"/>
<path d="M81.9316 213.167C84.3782 209.21 87.2533 205.534 90.505 202.207C95.5916 197.12 99.8716 193.507 100.538 190.147C101.205 186.787 95.445 184.307 95.445 184.307C95.445 184.307 102.478 185.573 104.405 182.62C106.332 179.667 107.258 162.56 107.258 162.56C107.258 162.56 94.4583 171.7 88.4916 184.513C82.525 197.327 81.9316 213.167 81.9316 213.167Z" fill="#EBEBEB"/>
<path d="M102.666 178.607C101.823 178.481 100.969 178.452 100.119 178.52C100.019 178.52 100.026 178.693 100.119 178.7C100.959 178.7 101.806 178.66 102.646 178.7C102.656 178.698 102.664 178.692 102.671 178.685C102.678 178.678 102.683 178.669 102.685 178.66C102.687 178.65 102.686 178.64 102.683 178.63C102.68 178.621 102.674 178.613 102.666 178.607Z" fill="white"/>
<path d="M93.4721 195.2C92.1204 195.228 90.7843 195.494 89.5254 195.987C89.5254 195.987 89.5254 196.053 89.5254 196.047C90.8587 195.733 92.1454 195.607 93.4654 195.38C93.4826 195.372 93.4974 195.36 93.508 195.345C93.5185 195.329 93.5245 195.311 93.5252 195.292C93.5259 195.273 93.5213 195.255 93.5119 195.238C93.5025 195.222 93.4887 195.209 93.4721 195.2Z" fill="white"/>
<path d="M90.714 189.467C90.1528 189.462 89.5925 189.511 89.0406 189.613C89.0304 189.617 89.0216 189.624 89.0154 189.633C89.0092 189.642 89.0059 189.652 89.0059 189.663C89.0059 189.674 89.0092 189.685 89.0154 189.694C89.0216 189.703 89.0304 189.71 89.0406 189.713C89.5995 189.746 90.1601 189.721 90.714 189.64C90.737 189.64 90.759 189.631 90.7752 189.615C90.7915 189.598 90.8006 189.576 90.8006 189.553C90.8006 189.53 90.7915 189.508 90.7752 189.492C90.759 189.476 90.737 189.467 90.714 189.467Z" fill="white"/>
<path d="M44.4066 181.26C48.5727 182.672 52.565 184.553 56.3066 186.867C60.1889 189.334 63.5555 192.531 66.2199 196.28C71.8259 204.084 76.1181 212.751 78.9266 221.94C80.4929 227.028 81.4595 232.281 81.8066 237.593C81.7993 237.628 81.7804 237.659 81.7531 237.681C81.7258 237.703 81.6917 237.715 81.6566 237.715C81.6214 237.715 81.5874 237.703 81.5601 237.681C81.5328 237.659 81.5139 237.628 81.5066 237.593C80.3298 228.383 77.7158 219.414 73.7599 211.013C69.8733 202.78 64.9733 194.02 57.4799 188.567C53.3999 185.6 48.8133 183.653 44.2399 181.6C43.9999 181.52 44.1666 181.18 44.4066 181.26Z" fill="#EBEBEB"/>
<path d="M75.9394 216.067C73.0431 213.432 69.8663 211.122 66.4661 209.18C61.1728 206.24 56.8728 204.307 55.5594 201.74C54.2461 199.173 58.3328 195.84 58.3328 195.84C58.3328 195.84 52.9328 198.507 50.6928 196.54C48.4528 194.573 43.7461 180.973 43.7461 180.973C43.7461 180.973 56.2194 185.407 63.9994 194.4C71.7794 203.393 75.9394 216.067 75.9394 216.067Z" fill="#EBEBEB"/>
<path d="M65.5856 203.547C64.3593 203.461 63.1279 203.613 61.959 203.993C61.959 203.993 61.959 204.053 61.959 204.047C63.1516 203.842 64.3565 203.718 65.5656 203.673C65.6523 203.673 65.6723 203.553 65.5856 203.547Z" fill="white"/>
<path d="M54.7053 189.28C54.1459 189.234 53.5829 189.266 53.032 189.373C52.972 189.373 52.992 189.48 53.032 189.473C53.5853 189.413 54.1253 189.433 54.672 189.42C54.689 189.421 54.7057 189.415 54.7192 189.405C54.7328 189.395 54.7423 189.38 54.7463 189.364C54.7502 189.347 54.7483 189.33 54.7408 189.315C54.7333 189.299 54.7208 189.287 54.7053 189.28Z" fill="white"/>
<path d="M92.0264 254.787H63.873L67.8864 225.38L68.9131 217.84H86.9864L88.0131 225.38L92.0264 254.787Z" fill="#DBDBDB"/>
<path d="M88.0134 225.38H67.8867L68.9134 217.84H86.9867L88.0134 225.38Z" fill="#C7C7C7"/>
<path d="M89.5662 215.227H66.3262V221.613H89.5662V215.227Z" fill="#DBDBDB"/>
<path d="M45.9727 254.787L96.646 254.627L147.319 254.567L248.666 254.453L350.013 254.567L400.686 254.627L451.359 254.787L400.686 254.953L350.013 255.007L248.666 255.12L147.319 255.007L96.646 254.947L45.9727 254.787Z" fill="#263238"/>
<path d="M250 304.473C355.575 304.473 441.16 295.095 441.16 283.527C441.16 271.958 355.575 262.58 250 262.58C144.425 262.58 58.8398 271.958 58.8398 283.527C58.8398 295.095 144.425 304.473 250 304.473Z" fill="#EBEBEB"/>
<path d="M205.501 280.06C203.948 280.587 159.408 280.727 157.701 279.673C157.035 279.273 156.655 272.787 156.368 264.933C156.308 263.24 156.261 261.487 156.221 259.713L152.668 235.953L182.448 235.76L185.255 259.527L185.141 264.753C185.141 264.753 202.221 272.32 203.968 273.693C205.715 275.067 207.055 279.533 205.501 280.06Z" fill="#EB9481"/>
<path d="M205.501 280.06C203.948 280.587 159.408 280.727 157.701 279.673C156.915 279.18 156.488 269.707 156.248 259.713L185.221 259.527L185.108 264.753C185.108 264.753 202.188 272.32 203.935 273.693C205.681 275.067 207.055 279.533 205.501 280.06Z" fill="white"/>
<path d="M205.501 280.06C203.947 280.587 159.407 280.727 157.701 279.673C157.034 279.273 156.654 272.787 156.367 264.933L185.081 264.753C185.081 264.753 202.161 272.32 203.907 273.693C205.654 275.067 207.054 279.533 205.501 280.06Z" fill="#A6A6A6"/>
<path d="M204.855 278.28C197.388 278.12 167.255 278.193 159.861 278.607C159.801 278.607 159.801 278.647 159.861 278.653C167.261 278.967 197.395 278.653 204.855 278.4C205.015 278.393 205.015 278.28 204.855 278.28Z" fill="#263238"/>
<path d="M201.061 272.1C200.23 272.081 199.405 272.235 198.637 272.552C197.87 272.869 197.176 273.341 196.601 273.94C195.552 275.009 194.959 276.443 194.947 277.94C194.947 277.987 195.027 277.987 195.034 277.94C195.282 276.465 196 275.11 197.081 274.077C198.163 273.043 199.549 272.387 201.034 272.207C201.048 272.21 201.063 272.208 201.076 272.201C201.088 272.193 201.097 272.181 201.101 272.167C201.104 272.153 201.102 272.138 201.094 272.125C201.087 272.113 201.075 272.104 201.061 272.1Z" fill="#263238"/>
<path d="M188.002 265.487C185.015 265.453 181.555 266.52 179.702 268.973C179.635 269.067 179.768 269.167 179.855 269.12C182.464 267.743 185.213 266.648 188.055 265.853C188.099 265.841 188.137 265.814 188.162 265.776C188.187 265.737 188.197 265.692 188.19 265.646C188.184 265.601 188.161 265.56 188.126 265.531C188.091 265.501 188.047 265.486 188.002 265.487Z" fill="#263238"/>
<path d="M190.321 266.373C187.328 266.373 183.868 267.413 182.021 269.86C181.948 269.96 182.081 270.06 182.175 270.013C184.78 268.631 187.527 267.534 190.368 266.74C190.411 266.728 190.449 266.701 190.474 266.664C190.499 266.626 190.509 266.581 190.504 266.536C190.498 266.492 190.476 266.451 190.443 266.421C190.409 266.391 190.366 266.374 190.321 266.373Z" fill="#263238"/>
<path d="M192.629 267.267C189.642 267.267 186.182 268.3 184.329 270.753C184.262 270.847 184.395 270.947 184.482 270.9C187.091 269.523 189.84 268.428 192.682 267.633C192.726 267.621 192.764 267.594 192.789 267.556C192.814 267.517 192.824 267.472 192.817 267.426C192.811 267.381 192.788 267.34 192.753 267.311C192.718 267.281 192.674 267.266 192.629 267.267Z" fill="#263238"/>
<path d="M194.942 268.16C191.948 268.127 188.488 269.193 186.642 271.647C186.568 271.74 186.708 271.84 186.795 271.793C189.404 270.415 192.153 269.32 194.995 268.527C195.039 268.515 195.077 268.487 195.102 268.449C195.127 268.411 195.137 268.365 195.13 268.32C195.124 268.275 195.101 268.234 195.066 268.204C195.032 268.175 194.987 268.159 194.942 268.16Z" fill="#263238"/>
<path d="M161.74 271.507C158.407 271.507 158.407 276.74 161.74 276.72C165.074 276.7 165.1 271.487 161.74 271.507Z" fill="#263238"/>
<path d="M191.207 257.5C189.693 256.247 187.787 257.5 186.86 258.787C185.317 261.061 184.398 263.7 184.193 266.44C184.193 266.5 184.24 266.527 184.287 266.527C184.299 266.583 184.324 266.636 184.36 266.681C184.397 266.725 184.443 266.76 184.496 266.783C184.549 266.806 184.607 266.816 184.664 266.812C184.722 266.808 184.777 266.79 184.827 266.76C186.947 265.287 189.4 263.967 191.007 261.88C191.92 260.667 192.667 258.667 191.207 257.5ZM187.567 263.86C186.54 264.613 185.48 265.313 184.48 266.107C185.013 264.613 185.473 263.107 186.153 261.667C186.468 260.976 186.828 260.308 187.233 259.667C187.9 258.673 190.807 256.167 191.113 259.413C191.287 261.193 188.787 262.967 187.567 263.86Z" fill="#263238"/>
<path d="M176.753 267.573C179.353 267.96 182.04 267.213 184.593 266.807C184.649 266.792 184.7 266.765 184.743 266.727C184.786 266.689 184.82 266.642 184.841 266.589C184.862 266.536 184.871 266.478 184.866 266.421C184.861 266.364 184.843 266.309 184.813 266.26C184.823 266.253 184.831 266.243 184.836 266.232C184.842 266.221 184.845 266.209 184.845 266.197C184.845 266.184 184.842 266.172 184.836 266.161C184.831 266.15 184.823 266.141 184.813 266.133C182.762 264.304 180.265 263.046 177.573 262.487C176 262.187 173.773 262.62 173.573 264.573C173.333 266.413 175.233 267.333 176.753 267.573ZM174.94 265.88C172.94 263.32 176.76 263.1 177.907 263.367C178.651 263.553 179.381 263.789 180.093 264.073C181.552 264.678 182.978 265.357 184.367 266.107C183.1 266.233 181.853 266.46 180.593 266.633C179.087 266.833 176.06 267.287 174.94 265.88Z" fill="#263238"/>
<path d="M108.881 126.133C108.881 126.133 143.461 184.96 144.388 189.093C145.808 195.44 153.334 258.113 153.334 258.113L189.334 257.447C189.334 257.447 183.134 202.187 177.261 183.98C173.034 170.867 142.514 127.373 142.514 127.373L108.881 126.133Z" fill="#37474F"/>
<path d="M186.062 251.953C180.895 251.913 162.582 251.707 155.702 252.347C155.648 252.347 155.655 252.44 155.702 252.447C158.068 252.787 180.888 252.26 186.055 252.093C186.066 252.097 186.077 252.099 186.089 252.097C186.1 252.096 186.111 252.092 186.121 252.085C186.13 252.079 186.138 252.071 186.144 252.061C186.149 252.051 186.153 252.039 186.153 252.028C186.154 252.016 186.151 252.005 186.147 251.994C186.142 251.984 186.135 251.975 186.126 251.968C186.117 251.96 186.107 251.955 186.096 251.953C186.084 251.95 186.073 251.951 186.062 251.953Z" fill="#263238"/>
<path d="M114.782 131.533C117.049 135.087 119.449 138.567 121.755 142.093C124.062 145.62 126.382 149.147 128.669 152.667C133.229 159.778 137.673 166.936 142.002 174.14C144.115 177.479 145.922 181.003 147.402 184.667C148.753 188.332 149.768 192.111 150.435 195.96C151.142 199.82 151.609 203.72 152.042 207.62C152.487 211.767 152.951 215.916 153.435 220.067C154.382 228.56 155.331 237.053 156.282 245.547C156.395 246.587 156.509 247.627 156.615 248.673C156.615 248.827 156.355 248.853 156.335 248.673C155.275 240.24 154.395 231.773 153.435 223.34C152.955 219.131 152.478 214.924 152.002 210.72C151.555 206.807 151.129 202.887 150.522 199C149.965 195.164 149.119 191.375 147.989 187.667C146.744 183.827 145.076 180.138 143.015 176.667C138.849 169.473 134.435 162.407 130.022 155.333C125.609 148.26 121.075 141.127 116.422 134.14C115.849 133.28 115.269 132.42 114.669 131.573C114.622 131.527 114.742 131.467 114.782 131.533Z" fill="#263238"/>
<path d="M120.214 283.527C118.574 283.427 76.2145 266.267 75.0411 264.64C74.9889 264.544 74.9657 264.435 74.9745 264.327C74.9745 262.867 77.9145 257.773 80.3678 251.08C80.5211 250.653 81.6145 248.667 83.1278 245.993C87.3345 238.667 94.6678 226.047 94.6678 226.047L122.354 237.047L109.101 256.88L107.041 261.68C107.041 261.68 120.034 275.113 121.128 277.013C122.221 278.913 121.848 283.62 120.214 283.527Z" fill="#EB9481"/>
<path d="M120.214 283.527C118.574 283.427 76.2145 266.267 75.0411 264.64C74.9889 264.544 74.9657 264.435 74.9745 264.327C74.9745 262.867 77.9145 257.773 80.3678 251.08C80.5211 250.653 81.6145 248.667 83.1278 245.993L109.128 256.88L107.068 261.68C107.068 261.68 120.061 275.113 121.154 277.013C122.248 278.913 121.848 283.62 120.214 283.527Z" fill="white"/>
<path d="M120.214 283.527C118.574 283.427 76.2139 266.267 75.0406 264.64C74.5873 264.02 76.4806 258.24 80.3739 251.08L107.041 261.687C107.041 261.687 120.034 275.107 121.134 277.02C122.234 278.933 121.847 283.62 120.214 283.527Z" fill="#A6A6A6"/>
<path d="M120.281 281.633C113.421 278.687 85.4611 267.447 78.4544 265.06C78.3944 265.06 78.3811 265.06 78.4544 265.1C85.1944 268.167 113.241 279.18 120.254 281.767C120.388 281.8 120.428 281.693 120.281 281.633Z" fill="#263238"/>
<path d="M119.082 274.48C118.321 274.146 117.499 273.973 116.669 273.973C115.838 273.973 115.016 274.146 114.255 274.48C112.887 275.079 111.803 276.182 111.229 277.56C111.229 277.6 111.289 277.633 111.309 277.593C112.094 276.315 113.273 275.326 114.669 274.774C116.064 274.223 117.601 274.138 119.049 274.533C119.06 274.53 119.069 274.523 119.076 274.513C119.082 274.503 119.084 274.491 119.082 274.48Z" fill="#263238"/>
<path d="M109.462 263.453C106.708 262.3 103.095 261.993 100.462 263.573C100.362 263.633 100.462 263.773 100.548 263.767C103.484 263.469 106.443 263.485 109.375 263.813C109.42 263.818 109.465 263.807 109.503 263.78C109.54 263.754 109.566 263.716 109.577 263.671C109.587 263.627 109.581 263.581 109.56 263.541C109.539 263.501 109.504 263.47 109.462 263.453Z" fill="#263238"/>
<path d="M111.268 265.147C108.515 263.993 104.902 263.687 102.268 265.267C102.168 265.327 102.268 265.467 102.355 265.46C105.29 265.159 108.25 265.175 111.182 265.507C111.227 265.512 111.272 265.5 111.309 265.474C111.346 265.448 111.373 265.409 111.383 265.365C111.394 265.321 111.388 265.274 111.367 265.234C111.346 265.194 111.311 265.163 111.268 265.147Z" fill="#263238"/>
<path d="M113.082 266.84C110.322 265.687 106.709 265.38 104.082 266.96C103.975 267.02 104.082 267.16 104.162 267.153C107.097 266.852 110.057 266.868 112.989 267.2C113.035 267.208 113.082 267.198 113.121 267.173C113.16 267.147 113.188 267.108 113.2 267.063C113.212 267.018 113.206 266.97 113.184 266.928C113.163 266.887 113.126 266.856 113.082 266.84Z" fill="#263238"/>
<path d="M114.887 268.533C112.127 267.38 108.52 267.073 105.887 268.647C105.78 268.713 105.887 268.853 105.967 268.847C108.902 268.546 111.861 268.561 114.793 268.893C114.839 268.901 114.887 268.891 114.926 268.866C114.965 268.84 114.993 268.801 115.005 268.756C115.017 268.711 115.011 268.663 114.989 268.622C114.967 268.581 114.931 268.549 114.887 268.533Z" fill="#263238"/>
<path d="M82.8543 259.18C79.741 257.94 77.8076 262.787 80.9343 264.027C84.061 265.267 86.001 260.42 82.8543 259.18Z" fill="#263238"/>
<path d="M115.427 257.253C114.487 255.527 112.267 255.953 110.914 256.813C108.634 258.341 106.795 260.439 105.581 262.9C105.575 262.911 105.572 262.923 105.572 262.935C105.572 262.947 105.575 262.959 105.58 262.97C105.585 262.98 105.593 262.99 105.602 262.998C105.611 263.005 105.622 263.011 105.634 263.013C105.634 263.233 105.781 263.493 106.041 263.44C108.567 262.86 111.334 262.56 113.601 261.227C114.901 260.453 116.314 258.887 115.427 257.253ZM109.661 261.78C108.427 262.093 107.187 262.347 105.967 262.707C106.976 261.491 108.047 260.327 109.174 259.22C109.729 258.692 110.319 258.202 110.941 257.753C111.907 257.087 115.561 255.853 114.627 258.98C114.114 260.707 111.134 261.407 109.661 261.78Z" fill="#263238"/>
<path d="M98.248 261.167C100.515 262.5 103.281 262.813 105.801 263.4C106.061 263.46 106.235 263.2 106.215 262.973C106.227 262.972 106.239 262.967 106.249 262.96C106.26 262.953 106.268 262.943 106.273 262.932C106.279 262.92 106.281 262.908 106.28 262.895C106.279 262.883 106.275 262.871 106.268 262.86C105.055 260.395 103.216 258.291 100.935 256.76C99.6013 255.893 97.368 255.46 96.4213 257.18C95.4747 258.9 96.9213 260.387 98.248 261.167ZM97.208 258.913C96.2813 255.787 99.928 257.027 100.895 257.7C101.515 258.149 102.104 258.641 102.655 259.173C103.78 260.283 104.848 261.449 105.855 262.667C104.635 262.307 103.395 262.047 102.161 261.733C100.668 261.333 97.7147 260.667 97.208 258.913Z" fill="#263238"/>
<path d="M111.255 255.773L80.2617 243.26C80.2617 243.26 118.688 186.76 118.968 182.553C119.222 178.833 102.342 146.42 101.682 136.973C100.962 126.773 105.868 118.887 111.268 113.987L143.235 127.58C143.235 127.58 139.862 132.973 134.568 135.98C134.568 135.98 150.962 173.447 150.028 184.967C149.095 196.487 111.255 255.773 111.255 255.773Z" fill="#37474F"/>
<path d="M112.628 249.88C108.148 247.953 109.462 248.44 104.955 246.547C102.755 245.627 88.2883 239.607 86.0617 239.107C86.015 239.107 85.9817 239.173 86.0283 239.2C87.955 240.38 102.542 246.147 104.762 247.027C109.302 248.813 108.015 248.253 112.575 249.987C112.582 249.996 112.591 250.003 112.601 250.008C112.612 250.012 112.623 250.014 112.634 250.013C112.646 250.012 112.657 250.008 112.666 250.002C112.675 249.995 112.683 249.987 112.688 249.977C112.693 249.966 112.695 249.955 112.695 249.944C112.694 249.932 112.691 249.921 112.685 249.912C112.679 249.902 112.671 249.894 112.661 249.888C112.651 249.883 112.64 249.88 112.628 249.88Z" fill="#263238"/>
<path d="M139.808 135.293C136.48 136.069 133.224 137.126 130.075 138.453C130.062 138.458 130.05 138.465 130.04 138.473C130.03 138.482 130.022 138.493 130.016 138.505C130.01 138.517 130.007 138.53 130.006 138.544C130.005 138.557 130.007 138.571 130.011 138.583C130.016 138.596 130.023 138.608 130.032 138.618C130.04 138.628 130.051 138.636 130.063 138.642C130.075 138.648 130.089 138.651 130.102 138.652C130.115 138.653 130.129 138.651 130.141 138.647C133.408 137.693 136.728 136.8 139.941 135.673C140.188 135.587 140.061 135.24 139.808 135.293Z" fill="#263238"/>
<path d="M136.002 134C135.691 134.553 135.417 135.125 135.182 135.713C134.952 136.16 134.809 136.647 134.762 137.147C134.762 137.247 134.895 137.267 134.955 137.207C135.29 136.807 135.559 136.357 135.755 135.873C136.028 135.347 136.308 134.827 136.568 134.287C136.748 133.893 136.208 133.64 136.002 134Z" fill="#263238"/>
<path d="M136.401 130.973C136.601 130.48 136.794 129.993 137.001 129.5C137.208 129.007 137.468 128.5 137.668 127.98C137.668 127.9 137.828 127.98 137.794 128.04C137.594 128.533 137.468 129.053 137.314 129.56C137.161 130.067 136.988 130.573 136.821 131.08C136.508 132.02 136.154 132.953 135.721 133.867C136.246 133.893 136.769 133.802 137.254 133.6C137.75 133.283 138.13 132.816 138.341 132.267C138.621 131.72 138.881 131.16 139.168 130.613C139.521 130.022 139.817 129.4 140.054 128.753C140.054 128.673 140.214 128.753 140.181 128.813C139.746 130.18 139.177 131.5 138.481 132.753C138.181 133.24 137.948 133.753 137.401 133.94C136.809 134.106 136.19 134.149 135.581 134.067C135.501 134.067 135.408 134.067 135.434 133.947C135.707 132.94 136.03 131.948 136.401 130.973Z" fill="#263238"/>
<path d="M135.041 137.2C136.181 139.607 137.181 142.007 138.241 144.407C139.301 146.807 140.241 149.127 141.195 151.513C143.101 156.327 144.808 161.233 146.308 166.18C147.048 168.633 147.735 171.107 148.348 173.6C149.023 176.085 149.518 178.616 149.828 181.173C150.095 183.726 149.869 186.306 149.161 188.773C148.426 191.212 147.483 193.583 146.341 195.86C145.641 197.3 145.408 197.107 145.741 196.38C146.695 194.313 149.195 188.053 149.015 182.793C148.869 180.275 148.48 177.777 147.855 175.333C147.272 172.813 146.617 170.313 145.888 167.833C144.468 162.94 142.781 158.147 141.048 153.36C140.075 150.693 139.048 148.027 138.048 145.36C137.048 142.693 136.048 140.24 134.928 137.293C134.895 137.173 135.008 137.127 135.041 137.2Z" fill="#263238"/>
<path d="M111.514 129.247C112.067 129.04 112.847 129.38 113.407 129.473C114.132 129.596 114.865 129.67 115.6 129.693C116.328 129.719 117.056 129.694 117.78 129.62C118.509 129.601 119.224 129.412 119.867 129.067C120.921 128.298 121.825 127.343 122.534 126.247C123.377 125.127 124.074 123.904 124.607 122.607C124.607 122.527 124.747 122.607 124.72 122.66C124.487 123.4 124.314 124.147 124.054 124.873C123.766 125.556 123.423 126.214 123.027 126.84C122.385 128.1 121.436 129.178 120.267 129.973C118.98 130.707 117.327 130.64 115.894 130.58C115.062 130.532 114.236 130.422 113.42 130.253C112.834 130.127 111.847 130.033 111.474 129.52C111.456 129.5 111.443 129.477 111.435 129.452C111.428 129.427 111.426 129.4 111.43 129.374C111.433 129.348 111.443 129.323 111.457 129.301C111.472 129.279 111.491 129.26 111.514 129.247Z" fill="#263238"/>
<path d="M89.1084 237.333C94.2017 229.618 99.2017 221.84 104.108 214C109.015 206.16 113.855 198.26 118.628 190.3C119.768 188.4 121.082 186.507 121.815 184.4C122.615 182.113 122.162 179.893 121.442 177.653C120.082 173.567 118.493 169.561 116.682 165.653C114.895 161.713 112.968 157.84 111.075 153.953C109.182 150.067 107.202 146.227 105.742 142.173C104.408 138.3 103.868 134.287 104.908 130.273C105.948 126.26 108.188 122.713 110.528 119.373C111.142 118.493 111.775 117.62 112.395 116.707C112.442 116.64 112.542 116.707 112.495 116.787C109.915 120.267 107.402 123.953 105.888 128.04C105.115 130.054 104.682 132.184 104.608 134.34C104.596 136.529 104.936 138.706 105.615 140.787C106.868 144.84 108.848 148.673 110.695 152.487C112.542 156.3 114.515 160.247 116.335 164.173C118.213 168.125 119.882 172.173 121.335 176.3C121.955 178.133 122.668 180.053 122.615 182.02C122.568 184.173 121.542 186.113 120.475 187.927C115.808 195.827 111.028 203.633 106.162 211.393C101.295 219.153 96.2884 226.913 91.2217 234.593L89.3017 237.493C89.2017 237.613 89.0284 237.473 89.1084 237.333Z" fill="#263238"/>
<path d="M145.008 91.6467C147.895 97.98 162.475 106.707 169.302 107.647C174.208 108.313 189.128 108.553 194.242 107.773C200.242 106.853 195.655 90.6867 192.115 91.1067C182.382 92.24 174.115 93.5067 171.515 93.5067C168.342 93.5067 151.175 88 149.108 87.22C144.042 85.3334 143.375 88.0534 145.008 91.6467Z" fill="#EB9481"/>
<path d="M145.101 93.3333C148.754 98.74 160.894 107.58 160.894 107.58L162.581 103.847L168.161 91.5C168.161 91.5 157.007 88 149.667 86.4C148.804 86.2034 147.925 86.0785 147.041 86.0267C142.354 85.7733 141.947 88.6667 145.101 93.3333Z" fill="#1DB954"/>
<path d="M145.101 93.3334C148.754 98.74 160.894 107.58 160.894 107.58L162.581 103.847C158.054 98.5867 151.061 90.62 147.041 86.04C142.354 85.7734 141.947 88.6667 145.101 93.3334Z" fill="#263238"/>
<path d="M158.708 105.073C159.635 102.8 163.755 93.6467 164.781 91.74C164.848 91.6067 164.955 91.62 164.895 91.74C163.108 96.2919 161.073 100.743 158.801 105.073C158.775 105.153 158.668 105.127 158.708 105.073Z" fill="#263238"/>
<path d="M190.328 91.2734C196.248 90.5 203.575 89.1734 209.781 91.8067C210.479 92.0801 211.063 92.5803 211.441 93.2267C214.241 94.36 214.548 96.02 214.548 96.02C216.835 97.8734 216.915 99.62 216.915 99.62C216.915 99.62 220.195 100.953 219.695 103.1C219.148 105.473 214.655 103.1 211.388 103.293C203.888 103.76 193.388 106.513 191.221 106.86L190.328 91.2734Z" fill="#EB9481"/>
<path d="M203.187 98.26C205.38 98.11 207.581 98.11 209.774 98.26C212.162 98.5597 214.525 99.0388 216.841 99.6934C216.856 99.6987 216.872 99.6978 216.887 99.6909C216.901 99.684 216.912 99.6717 216.917 99.6567C216.923 99.6417 216.922 99.6251 216.915 99.6108C216.908 99.5964 216.896 99.5853 216.881 99.58C212.529 97.8728 207.793 97.3931 203.187 98.1934C203.081 98.18 203.081 98.2667 203.187 98.26Z" fill="#263238"/>
<path d="M201.794 91.3334C205.454 91.52 207.741 92.1067 211.421 93.2134V93.1733C207.367 91.48 205.707 91.32 201.774 91.1733C201.647 91.2267 201.654 91.3334 201.794 91.3334Z" fill="#263238"/>
<path d="M202.387 104.427C201.434 104.873 201.667 105.373 203.487 105.793C205.307 106.213 212.874 106.34 212.607 108.98C212.341 111.62 201.667 111.287 198.687 110.353C195.707 109.42 191.221 106.86 191.221 106.86C193.334 106.507 198.294 105.167 202.387 104.427Z" fill="#EB9481"/>
<path d="M152.934 101.74C152.887 102.88 152.781 104.04 152.621 105.193C152.621 105.147 152.621 105.107 152.667 105.067C152.887 104.467 153.107 103.853 153.374 103.273C153.374 103.273 153.441 103.273 153.434 103.273C153.306 103.909 153.114 104.53 152.861 105.127C152.741 105.413 152.627 105.693 152.501 105.973C152.421 106.487 152.327 106.993 152.227 107.5C152.027 108.453 151.127 112.507 150.894 113.193C150.854 113.333 150.681 113.3 150.694 113.14C150.741 112.393 151.494 108.173 151.647 107.213C151.945 105.36 152.344 103.524 152.841 101.713C152.874 101.68 152.941 101.707 152.934 101.74Z" fill="#263238"/>
<path d="M146.002 132.053C144.222 132.967 141.928 134.387 131.595 132.353C130.928 132.22 130.302 132.06 129.648 131.867C119.962 128.96 108.315 117.567 107.682 116.76C107.682 116.76 123.075 91.8067 142.762 83.96C145.195 82.9934 149.222 84.86 151.428 87.1867C152.222 88.02 153.948 94.1467 153.288 99.1067C152.628 104.067 147.775 131.14 146.002 132.053Z" fill="#1DB954"/>
<path d="M144.615 98.88C144.689 99.9345 144.541 100.993 144.181 101.987C144.097 100.932 144.245 99.8714 144.615 98.88Z" fill="white"/>
<path d="M137.901 115.873C137.944 116.398 137.926 116.926 137.848 117.447C137.784 117.971 137.656 118.486 137.468 118.98C137.422 118.453 137.44 117.923 137.521 117.4C137.59 116.878 137.717 116.366 137.901 115.873Z" fill="white"/>
<path d="M126.493 103.027C126.568 104.083 126.421 105.144 126.06 106.14C125.976 105.083 126.124 104.021 126.493 103.027Z" fill="white"/>
<path d="M149.007 115.007C149.05 115.534 149.032 116.064 148.954 116.587C148.889 117.111 148.762 117.626 148.574 118.12C148.528 117.593 148.546 117.063 148.627 116.54C148.694 116.016 148.822 115.502 149.007 115.007Z" fill="white"/>
<path d="M134.361 100.827C134.886 100.782 135.414 100.798 135.935 100.873C136.46 100.94 136.974 101.07 137.468 101.26C136.413 101.336 135.355 101.188 134.361 100.827Z" fill="white"/>
<path d="M121.414 113.1C122.469 113.026 123.527 113.173 124.521 113.533C123.466 113.618 122.405 113.47 121.414 113.1Z" fill="white"/>
<path d="M136.668 126.387C137.722 126.311 138.781 126.459 139.775 126.82C138.72 126.903 137.66 126.755 136.668 126.387Z" fill="white"/>
<path d="M117.42 121.56C118.474 121.486 119.533 121.633 120.527 121.993C119.472 122.077 118.412 121.929 117.42 121.56Z" fill="white"/>
<path d="M144.514 86.9334C145.568 86.859 146.626 87.0066 147.62 87.3667C146.566 87.441 145.508 87.2934 144.514 86.9334Z" fill="white"/>
<path d="M140.748 91.1867C140.411 91.5918 140.026 91.9545 139.601 92.2667C139.188 92.5861 138.741 92.8589 138.268 93.08C138.602 92.6775 138.983 92.3151 139.401 92C139.818 91.6794 140.27 91.4065 140.748 91.1867Z" fill="white"/>
<path d="M120.221 103.273C119.88 103.675 119.493 104.035 119.068 104.347C118.659 104.672 118.211 104.945 117.734 105.16C118.077 104.76 118.464 104.4 118.888 104.087C119.298 103.763 119.745 103.489 120.221 103.273Z" fill="white"/>
<path d="M145.854 108.727C145.513 109.13 145.126 109.493 144.701 109.807C144.291 110.131 143.843 110.404 143.367 110.62C143.708 110.216 144.095 109.854 144.521 109.54C144.933 109.219 145.38 108.946 145.854 108.727Z" fill="white"/>
<path d="M129.254 119.18C128.913 119.584 128.526 119.946 128.101 120.26C127.69 120.583 127.243 120.856 126.768 121.073C127.109 120.67 127.496 120.307 127.921 119.993C128.333 119.673 128.78 119.4 129.254 119.18Z" fill="white"/>
<path d="M152.215 94.4467C151.874 94.8504 151.487 95.2129 151.062 95.5267C150.649 95.8461 150.202 96.1189 149.729 96.34C150.07 95.9363 150.457 95.5738 150.882 95.26C151.292 94.9369 151.74 94.6638 152.215 94.4467Z" fill="white"/>
<path d="M151.868 106.56C151.464 106.219 151.102 105.832 150.788 105.407C150.463 104.997 150.19 104.549 149.975 104.073C150.38 104.41 150.742 104.795 151.055 105.22C151.373 105.636 151.646 106.085 151.868 106.56Z" fill="white"/>
<path d="M114.868 114.907C114.464 114.566 114.102 114.179 113.788 113.753C113.467 113.341 113.194 112.894 112.975 112.42C113.378 112.761 113.741 113.148 114.055 113.573C114.378 113.984 114.651 114.431 114.868 114.907Z" fill="white"/>
<path d="M147.368 124.833C146.963 124.496 146.6 124.111 146.288 123.687C145.968 123.274 145.696 122.826 145.475 122.353C145.878 122.694 146.241 123.081 146.555 123.507C146.876 123.916 147.149 124.361 147.368 124.833Z" fill="white"/>
<path d="M131.081 96.5334C130.677 96.1947 130.315 95.8098 130.001 95.3867C129.683 94.9727 129.41 94.5257 129.188 94.0534C129.593 94.3904 129.955 94.7754 130.267 95.2C130.586 95.614 130.858 96.0611 131.081 96.5334Z" fill="white"/>
<path d="M131.368 130.487C130.964 130.146 130.602 129.759 130.288 129.333C129.968 128.921 129.695 128.473 129.475 128C129.88 128.337 130.242 128.722 130.555 129.147C130.875 129.561 131.148 130.011 131.368 130.487Z" fill="white"/>
<path d="M134.135 110.46C133.735 110.117 133.375 109.73 133.061 109.307C132.736 108.898 132.463 108.45 132.248 107.973C132.65 108.315 133.01 108.702 133.321 109.127C133.645 109.537 133.919 109.984 134.135 110.46Z" fill="white"/>
<path d="M147.822 93.8333C145.308 93.3667 142.948 88.1733 142.648 84.68C142.648 84.44 143.822 82.54 145.162 80.16C145.975 78.7133 146.835 77.08 147.522 75.5334C147.662 75.22 148.482 76.28 148.482 76.28L150.268 77.6133L156.168 82.14C154.763 83.8259 153.57 85.6775 152.615 87.6533C152.521 87.8675 152.449 88.0909 152.402 88.32C152.399 88.3577 152.399 88.3956 152.402 88.4333C152.035 89.7533 150.242 94.28 147.822 93.8333Z" fill="#EB9481"/>
<path d="M152.401 88.3534C152.398 88.3911 152.398 88.429 152.401 88.4667C152.05 88.364 151.709 88.2324 151.381 88.0734C144.921 85.0467 147.767 76.3934 147.767 76.3934L150.301 77.6467L156.201 82.1734C154.796 83.8593 153.602 85.7108 152.647 87.6867C152.542 87.8995 152.459 88.123 152.401 88.3534Z" fill="#263238"/>
<path d="M162.947 63.72C162.947 63.72 165.901 65.5933 165.914 68.9267C165.927 72.26 164.581 75.52 164.301 75.64C164.021 75.76 162.947 63.72 162.947 63.72Z" fill="#263238"/>
<path d="M148.294 65.4534C146.521 68.9534 146.614 79.9867 148.828 82.8267C152.041 86.9467 158.228 88.3667 161.968 84.2934C165.588 80.3467 165.214 65.9734 162.634 63.2934C158.881 59.3334 150.921 60.2734 148.294 65.4534Z" fill="#EB9481"/>
<path d="M157.708 74.2867C157.708 74.2867 157.648 74.3267 157.655 74.3534C157.695 75.1067 157.615 75.9734 156.941 76.24C156.941 76.24 156.941 76.2867 156.941 76.28C157.775 76.1467 157.868 74.9934 157.708 74.2867Z" fill="#263238"/>
<path d="M157.022 73.52C155.809 73.4533 155.769 75.88 156.895 75.94C158.022 76 158.035 73.5733 157.022 73.52Z" fill="#263238"/>
<path d="M161.822 74.26C161.822 74.26 161.882 74.26 161.882 74.3267C161.842 75.08 161.928 75.9467 162.608 76.2067C162.608 76.2067 162.608 76.2534 162.608 76.2467C161.768 76.12 161.668 74.9667 161.822 74.26Z" fill="#263238"/>
<path d="M162.507 73.4867C163.714 73.4133 163.774 75.84 162.654 75.9067C161.534 75.9733 161.494 73.5467 162.507 73.4867Z" fill="#263238"/>
<path d="M156.261 71.6734C156.58 71.5827 156.894 71.4759 157.201 71.3534C157.552 71.29 157.871 71.1117 158.108 70.8467C158.166 70.7497 158.19 70.6363 158.177 70.5243C158.163 70.4122 158.114 70.3076 158.035 70.2267C157.854 70.0895 157.641 70.003 157.416 69.9761C157.191 69.9491 156.963 69.9827 156.755 70.0734C156.305 70.1938 155.916 70.4764 155.661 70.8667C155.611 70.9595 155.588 71.065 155.595 71.1705C155.602 71.2761 155.64 71.3773 155.703 71.4622C155.766 71.5471 155.852 71.6121 155.951 71.6496C156.05 71.687 156.158 71.6952 156.261 71.6734Z" fill="#263238"/>
<path d="M163.335 72.7467C163.011 72.6742 162.69 72.5852 162.375 72.48C162.024 72.4335 161.698 72.2717 161.448 72.02C161.384 71.9273 161.353 71.8156 161.36 71.7031C161.368 71.5905 161.413 71.4837 161.488 71.4C161.66 71.253 161.869 71.155 162.092 71.1163C162.314 71.0776 162.544 71.0996 162.755 71.18C163.211 71.2745 163.615 71.5361 163.888 71.9134C163.946 72.0026 163.975 72.1066 163.975 72.2126C163.974 72.3186 163.942 72.422 163.883 72.5104C163.825 72.5987 163.742 72.668 163.644 72.71C163.547 72.7519 163.44 72.7647 163.335 72.7467Z" fill="#263238"/>
<path d="M156.001 81.4134C156.181 81.5934 156.354 81.8333 156.628 81.86C156.908 81.8599 157.185 81.8008 157.441 81.6867C157.441 81.6867 157.488 81.6867 157.441 81.7267C157.332 81.8732 157.185 81.9872 157.015 82.0565C156.846 82.1258 156.662 82.1478 156.481 82.12C156.329 82.0785 156.192 81.9932 156.088 81.8747C155.983 81.7562 155.916 81.6097 155.894 81.4533C155.889 81.4392 155.889 81.4235 155.896 81.4098C155.902 81.396 155.913 81.3853 155.928 81.38C155.942 81.3747 155.957 81.3752 155.971 81.3815C155.985 81.3877 155.996 81.3992 156.001 81.4134Z" fill="#263238"/>
<path d="M160.36 78.2C160.36 78.2 160.394 79.32 160.36 79.8467C159.336 79.738 158.301 79.7739 157.287 79.9534C157.047 80.0067 157.074 79.8133 157.347 79.6867C158.164 79.3132 159.074 79.1925 159.96 79.34C160.014 79.2 159.874 77.6067 159.96 77.6133C160.364 77.6925 160.754 77.8271 161.12 78.0133C161.12 75.6667 160.747 73.3467 160.78 71C160.78 70.92 160.907 70.9067 160.92 71C161.394 73.4825 161.617 76.0063 161.587 78.5334C161.594 78.82 160.56 78.3067 160.36 78.2Z" fill="#263238"/>
<path d="M158.862 79.4467C158.596 80.1457 158.103 80.7351 157.462 81.12C156.455 81.5267 156.129 80.6134 157.142 79.7867C157.673 79.5181 158.268 79.4005 158.862 79.4467Z" fill="#263238"/>
<path d="M157.813 80.9134C157.707 81 157.588 81.0697 157.46 81.12C156.533 81.4933 156.167 80.7533 156.913 80.0067C157.42 80.0467 158 80.2334 157.813 80.9134Z" fill="#FF99BA"/>
<path d="M147.788 74.8867C149.008 75.26 150.408 71.5934 150.808 70.22C151.155 68.98 151.555 65.04 151.615 64.7667C151.675 64.4934 156.948 68.2534 160.002 67.36C163.055 66.4667 165.128 63.7 165.175 62.4134C165.222 61.1267 161.402 57.86 158.102 57.6934C154.802 57.5267 150.328 61.6934 150.328 61.6934C150.869 61.0802 151.359 60.4247 151.795 59.7334C151.742 59.5867 149.608 60.44 149.215 61.96C149.215 61.96 149.642 60.0467 149.482 60.0134C149.322 59.98 147.662 61.6134 148.035 62.8534C148.035 62.8534 146.115 64.5134 145.942 66.3334C145.768 68.1534 146.355 74.4467 147.788 74.8867Z" fill="#263238"/>
<path d="M162.188 66.6667C161.28 67.159 160.302 67.5098 159.288 67.7067C158.15 67.8082 157.005 67.6249 155.955 67.1734C154.898 66.7649 153.915 66.1836 153.048 65.4534C152.282 64.8267 151.595 64.06 150.775 63.5C150.568 63.3534 150.335 63.6534 150.462 63.84C151.83 65.7724 153.784 67.2125 156.035 67.9467C157.08 68.2876 158.196 68.3512 159.274 68.1316C160.351 67.9119 161.353 67.4163 162.182 66.6934C162.182 66.6934 162.202 66.6667 162.188 66.6667Z" fill="#263238"/>
<path d="M149.062 74.56C149.062 74.56 147.169 70.72 145.462 71.34C143.755 71.96 144.795 77.2734 146.549 78.2467C146.763 78.3856 147.004 78.4798 147.256 78.5235C147.508 78.5672 147.766 78.5596 148.015 78.5011C148.264 78.4425 148.499 78.3343 148.705 78.183C148.911 78.0316 149.085 77.8401 149.215 77.62L149.062 74.56Z" fill="#EB9481"/>
<path d="M145.801 72.8534C145.801 72.8534 145.761 72.8534 145.801 72.9067C147.014 73.6267 147.508 74.9067 147.801 76.24C147.746 76.0989 147.661 75.9714 147.551 75.8664C147.442 75.7615 147.311 75.6815 147.168 75.632C147.024 75.5826 146.872 75.5648 146.721 75.58C146.571 75.5952 146.425 75.643 146.294 75.72C146.254 75.72 146.294 75.7934 146.294 75.7934C146.533 75.7563 146.777 75.7941 146.993 75.9015C147.209 76.009 147.387 76.1808 147.501 76.3934C147.692 76.7494 147.844 77.1249 147.954 77.5134C147.994 77.64 148.214 77.6067 148.194 77.4667C148.481 75.8067 147.548 73.2934 145.801 72.8534Z" fill="#263238"/>
<path d="M136.561 91.7067C135.227 99.26 143.414 124.707 148.661 129.46C156.467 136.527 170.901 141.173 176.134 142.687C178.414 143.353 184.721 127.307 182.414 126.247C177.474 124 162.127 119.2 160.667 118C159.207 116.8 150.407 104.087 146.487 96.7667C141.241 86.9133 137.221 87.8867 136.561 91.7067Z" fill="#EB9481"/>
<path d="M178.529 124.833C178.529 124.833 185.342 126.573 189.736 127.913C192.189 128.667 196.282 130.327 197.836 131.7C200.156 133.76 208.542 143.84 206.142 145.927C203.969 147.82 197.862 138.24 197.862 138.24C197.862 138.24 204.876 147.36 201.862 149.153C198.849 150.947 193.336 139.207 193.336 139.207C193.336 139.207 200.329 148.74 196.909 150.093C194.322 151.113 188.776 140.76 188.776 140.76C188.776 140.76 194.736 148.993 192.109 150.16C189.216 151.453 183.502 142.213 183.502 142.213C176.356 144.06 172.169 142.013 169.416 140.213C168.769 139.773 178.529 124.833 178.529 124.833Z" fill="#EB9481"/>
<path d="M195.633 134.927C196.5 135.967 197.38 137.02 198.147 138.133C198.913 139.247 199.64 140.393 200.3 141.573C201.194 143.1 201.91 144.724 202.433 146.413C201.287 143.48 198.6 139.447 197.833 138.333C197.067 137.22 196.353 136.067 195.593 134.953C195.573 134.927 195.613 134.9 195.633 134.927Z" fill="#263238"/>
<path d="M191.561 137.627C193.041 138.8 196.141 143.16 197.334 146.087C197.388 146.207 197.334 146.2 197.248 146.087C196.314 144.64 192.528 139.04 191.528 137.647C191.508 137.627 191.541 137.607 191.561 137.627Z" fill="#263238"/>
<path d="M187.648 139.333C189.487 141.262 190.94 143.525 191.928 146C191.975 146.12 191.882 146.1 191.808 146C190.428 143.753 189.362 142 187.575 139.393C187.548 139.333 187.608 139.273 187.648 139.333Z" fill="#263238"/>
<path d="M144.001 92.26C137.914 83.6533 134.274 86.84 135.494 96.1867C136.641 104.927 139.701 115.34 139.701 115.34L155.034 107.9C155.034 107.9 147.874 97.7733 144.001 92.26Z" fill="#1DB954"/>
<path d="M147.701 95.6467C147.903 96.1328 148.048 96.6406 148.134 97.16C148.228 97.6811 148.261 98.2113 148.234 98.74C148.034 98.2514 147.891 97.7414 147.807 97.22C147.708 96.7018 147.672 96.1735 147.701 95.6467Z" fill="white"/>
<path d="M138.615 100.88C139.594 100.482 140.647 100.3 141.702 100.347C141.216 100.547 140.708 100.69 140.189 100.773C139.67 100.872 139.142 100.908 138.615 100.88Z" fill="white"/>
<path d="M139.008 87.4934C138.595 88.4677 137.979 89.3427 137.201 90.06C137.614 89.0857 138.23 88.2107 139.008 87.4934Z" fill="white"/>
<path d="M152 104.9C151.798 105.388 151.54 105.851 151.233 106.28C150.934 106.715 150.585 107.113 150.193 107.467C150.606 106.492 151.222 105.617 152 104.9Z" fill="white"/>
<path d="M141.334 110.12C140.846 109.92 140.382 109.663 139.954 109.353C139.519 109.055 139.121 108.706 138.768 108.313C139.742 108.726 140.617 109.342 141.334 110.12Z" fill="white"/>
<path d="M146.002 94.8534C146.822 95.98 147.668 97.08 148.508 98.1867C148.295 97.6267 148.108 97.06 147.948 96.4867H147.988C148.155 96.9267 148.348 97.36 148.508 97.82L148.748 98.4867C148.769 98.5322 148.787 98.579 148.802 98.6267C149.468 99.4867 150.135 100.347 150.748 101.227C151.502 102.28 152.228 103.347 152.962 104.413C153.695 105.48 154.435 106.807 155.228 107.88C155.302 107.973 153.895 108.547 153.742 108.62C153.588 108.693 153.508 108.567 153.655 108.52C153.802 108.473 154.922 107.787 154.935 107.773C154.202 106.693 153.355 105.7 152.588 104.653C151.822 103.607 151.062 102.56 150.322 101.5C148.822 99.34 147.448 97.1 145.955 94.9334L146.002 94.8534Z" fill="#263238"/>
<path d="M135.854 102.373C136.087 102.827 136.34 103.273 136.52 103.74L136.774 104.32C136.42 102.66 136.107 100.987 135.74 99.3267C136.447 101.993 137.16 104.72 137.814 107.427C138.434 110.013 139.187 112.627 139.547 115.267C140.012 115.063 140.494 114.9 140.987 114.78C140.492 115.1 139.959 115.358 139.4 115.547C138.597 112.862 137.929 110.139 137.4 107.387C137.234 106.64 137.08 105.893 136.92 105.147C136.747 104.693 136.54 104.26 136.334 103.813C136.127 103.367 135.94 102.867 135.754 102.393C135.794 102.367 135.84 102.34 135.854 102.373Z" fill="#263238"/>
<path d="M139.927 112.767C142.06 111.567 150.974 106.953 152.967 106.1C153.107 106.04 153.18 106.1 153.04 106.193C148.809 108.652 144.447 110.877 139.974 112.86C139.92 112.873 139.867 112.8 139.927 112.767Z" fill="#263238"/>
<path d="M384.214 288.033H181.094L210.46 121.467H413.58L384.214 288.033Z" fill="#1DB954"/>
<path d="M279.979 104.213H213.506L210.459 121.467H281.599L279.979 104.213Z" fill="#1DB954"/>
<g opacity="0.1">
<path d="M384.214 288.033H181.094L210.46 121.467H413.58L384.214 288.033Z" fill="black"/>
<path d="M279.981 104.213H213.508L210.461 121.467H281.601L279.981 104.213Z" fill="black"/>
</g>
<path d="M206.333 111.253C205.889 109.346 205.889 107.361 206.333 105.453C206.778 107.361 206.778 109.346 206.333 111.253Z" fill="#263238"/>
<path d="M200.426 112.96C199.747 112.256 199.163 111.467 198.686 110.613C198.187 109.777 197.795 108.881 197.52 107.947C198.2 108.646 198.785 109.433 199.26 110.287C199.758 111.126 200.15 112.024 200.426 112.96Z" fill="#263238"/>
<path d="M196.159 117.393C194.285 116.824 192.568 115.832 191.139 114.493C192.073 114.765 192.969 115.155 193.805 115.653C194.659 116.133 195.45 116.717 196.159 117.393Z" fill="#263238"/>
<path d="M194.665 123.367C192.757 123.811 190.773 123.811 188.865 123.367C190.773 122.922 192.757 122.922 194.665 123.367Z" fill="#263238"/>
<path d="M196.4 129.273C195.693 129.949 194.905 130.533 194.053 131.013C193.217 131.512 192.321 131.902 191.387 132.173C192.091 131.495 192.879 130.91 193.733 130.433C194.568 129.932 195.465 129.542 196.4 129.273Z" fill="#263238"/>
<path d="M200.828 133.533C200.26 135.41 199.268 137.13 197.928 138.56C198.199 137.624 198.591 136.728 199.094 135.893C199.57 135.036 200.152 134.243 200.828 133.533Z" fill="#263238"/>
<path d="M206.8 135.007C207.032 135.956 207.144 136.93 207.133 137.907C207.148 138.884 207.036 139.858 206.8 140.807C206.561 139.859 206.449 138.884 206.467 137.907C206.456 136.93 206.568 135.956 206.8 135.007Z" fill="#263238"/>
<path d="M212.707 133.333C213.386 134.037 213.971 134.826 214.447 135.68C214.948 136.515 215.338 137.411 215.607 138.347C214.267 136.916 213.275 135.196 212.707 133.32V133.333Z" fill="#263238"/>
<path d="M216.967 128.867C217.902 129.136 218.799 129.526 219.633 130.027C220.487 130.503 221.276 131.088 221.98 131.767C221.045 131.498 220.148 131.108 219.313 130.607C218.459 130.13 217.671 129.545 216.967 128.867Z" fill="#263238"/>
<path d="M218.439 122.893C220.35 122.449 222.336 122.449 224.246 122.893C222.336 123.338 220.35 123.338 218.439 122.893Z" fill="#263238"/>
<path d="M216.734 116.987C217.44 116.312 218.228 115.73 219.081 115.253C219.914 114.748 220.811 114.355 221.747 114.087C220.317 115.427 218.597 116.419 216.721 116.987H216.734Z" fill="#263238"/>
<path d="M212.299 112.727C212.573 111.793 212.963 110.897 213.459 110.06C213.935 109.206 214.52 108.417 215.199 107.713C214.93 108.649 214.54 109.545 214.039 110.38C213.562 111.234 212.978 112.023 212.299 112.727Z" fill="#263238"/>
<path d="M383.913 288.033H180.36L151.453 127.513H355.013L383.913 288.033Z" fill="#1DB954"/>
<path d="M221.993 225.64C226.666 225.64 230.453 221.852 230.453 217.18C230.453 212.508 226.666 208.72 221.993 208.72C217.321 208.72 213.533 212.508 213.533 217.18C213.533 221.852 217.321 225.64 221.993 225.64Z" fill="#263238"/>
<path d="M288.872 225.64C293.544 225.64 297.332 221.852 297.332 217.18C297.332 212.508 293.544 208.72 288.872 208.72C284.2 208.72 280.412 212.508 280.412 217.18C280.412 221.852 284.2 225.64 288.872 225.64Z" fill="#263238"/>
<path d="M267.586 226.993L267.12 226.107C267.08 226.027 262.706 217.947 253.913 217.947C245.913 217.947 243.913 225.553 243.86 225.88L243.62 226.847L241.68 226.38L241.913 225.407C241.913 225.313 244.3 215.947 253.913 215.947C263.913 215.947 268.693 224.8 268.893 225.18L269.36 226.06L267.586 226.993Z" fill="#263238"/>
<path d="M370.472 216.533L370.332 215.867C370.765 215.773 371.192 215.673 371.619 215.56L371.785 216.227C371.332 216.34 370.912 216.44 370.472 216.533Z" fill="#263238"/>
<path d="M374.365 215.46L374.152 214.833C374.985 214.547 375.819 214.233 376.625 213.893L376.885 214.507C376.065 214.853 375.219 215.173 374.365 215.46ZM379.332 213.333L379.032 212.747C379.812 212.34 380.592 211.9 381.332 211.413L381.679 211.98C380.919 212.507 380.125 212.953 379.332 213.333ZM383.919 210.513L383.525 209.973C384.245 209.447 384.939 208.893 385.592 208.327L386.032 208.827C385.332 209.433 384.665 210 383.912 210.54L383.919 210.513ZM387.985 206.967L387.499 206.507C388.112 205.84 388.692 205.173 389.225 204.507L389.752 204.913C389.199 205.647 388.605 206.333 387.999 206.993L387.985 206.967ZM391.285 202.7L390.719 202.347C391.179 201.602 391.589 200.827 391.945 200.027L392.559 200.3C392.182 201.134 391.754 201.945 391.279 202.727L391.285 202.7ZM393.492 197.753L392.825 197.567C393.069 196.73 393.249 195.877 393.365 195.013L394.032 195.1C393.921 196.006 393.739 196.903 393.485 197.78L393.492 197.753ZM394.232 192.42H393.565V192.227C393.565 191.42 393.519 190.6 393.439 189.793L394.105 189.727C394.193 190.557 394.237 191.392 394.239 192.227L394.232 192.42ZM393.032 187.2C392.852 186.34 392.63 185.491 392.365 184.653L393.032 184.453C393.305 185.32 393.539 186.2 393.699 187.06L393.032 187.2ZM391.452 182.18C391.132 181.393 390.785 180.587 390.359 179.773L390.959 179.473C391.365 180.3 391.739 181.127 392.065 181.927L391.452 182.18ZM389.119 177.427C388.705 176.7 388.252 175.933 387.785 175.147L388.352 174.793C388.839 175.587 389.299 176.36 389.685 177.1L389.119 177.427ZM386.332 172.9C385.845 172.167 385.352 171.427 384.845 170.687L385.399 170.313C385.905 171.053 386.399 171.793 386.885 172.54L386.332 172.9ZM383.332 168.487C382.832 167.753 382.325 167.013 381.832 166.28L382.385 165.907C382.879 166.64 383.379 167.38 383.879 168.107L383.332 168.487ZM380.352 164.047C379.865 163.3 379.392 162.54 378.925 161.78L379.492 161.433C379.959 162.193 380.432 162.94 380.912 163.687L380.352 164.047ZM377.572 159.467C377.119 158.66 376.699 157.86 376.319 157.093L376.919 156.793C377.292 157.553 377.712 158.34 378.152 159.14L377.572 159.467ZM375.205 154.667C374.852 153.833 374.539 152.987 374.245 152.16L374.912 151.947C375.192 152.753 375.505 153.587 375.852 154.407L375.205 154.667ZM373.472 149.58C373.252 148.713 373.059 147.827 372.912 146.913L373.579 146.807C373.725 147.66 373.905 148.527 374.125 149.38L373.472 149.58ZM372.579 144.247C372.512 143.427 372.479 142.6 372.479 141.773V141.553H373.145V141.767C373.145 142.573 373.145 143.387 373.245 144.187L372.579 144.247ZM373.245 138.913L372.579 138.847C372.579 138.667 372.612 138.48 372.632 138.287C372.712 137.573 372.812 136.86 372.932 136.18L373.599 136.293C373.485 136.96 373.385 137.66 373.305 138.36C373.332 138.567 373.332 138.747 373.279 138.933L373.245 138.913ZM374.172 133.727L373.505 133.547C373.752 132.667 374.039 131.807 374.359 130.987L374.979 131.227C374.676 132.052 374.417 132.893 374.205 133.747L374.172 133.727ZM407.392 129.84C407.019 129.84 406.632 129.787 406.252 129.733C405.732 129.66 405.212 129.573 404.699 129.473L404.832 128.807C405.325 128.9 405.839 128.987 406.345 129.06C406.705 129.107 407.072 129.14 407.425 129.16L407.392 129.84ZM410.132 129.633L409.992 128.967C410.829 128.794 411.631 128.483 412.365 128.047L412.712 128.613C411.927 129.099 411.066 129.451 410.165 129.653L410.132 129.633ZM376.092 128.84L375.499 128.527C375.923 127.732 376.393 126.961 376.905 126.22L377.452 126.6C376.965 127.326 376.522 128.081 376.125 128.86L376.092 128.84ZM402.092 128.8C401.231 128.527 400.386 128.209 399.559 127.847L399.832 127.233C400.633 127.589 401.455 127.899 402.292 128.16L402.092 128.8ZM414.759 126.72L414.205 126.347C414.68 125.658 414.961 124.854 415.019 124.02L415.685 124.067C415.629 125.023 415.315 125.947 414.779 126.74L414.759 126.72ZM397.159 126.62C396.378 126.167 395.624 125.67 394.899 125.133L395.292 124.6C395.998 125.121 396.732 125.601 397.492 126.04L397.159 126.62ZM379.092 124.54L378.599 124.093C379.202 123.422 379.845 122.788 380.525 122.193L380.965 122.693C380.311 123.279 379.692 123.902 379.112 124.56L379.092 124.54ZM392.819 123.413C392.155 122.802 391.525 122.154 390.932 121.473L391.432 121.033C392.009 121.695 392.621 122.324 393.265 122.92L392.819 123.413ZM414.519 121.607C414.137 120.845 413.609 120.165 412.965 119.607L413.405 119.107C414.114 119.719 414.696 120.464 415.119 121.3L414.519 121.607ZM383.039 121.08L382.659 120.533C383.404 120.024 384.177 119.555 384.972 119.127L385.285 119.713C384.519 120.137 383.776 120.599 383.059 121.1L383.039 121.08ZM389.265 119.347C389.012 118.987 388.765 118.62 388.532 118.24L387.665 118.58L387.412 117.967L388.179 117.66C388.059 117.46 387.939 117.26 387.825 117.06L388.405 116.733C388.539 116.967 388.672 117.2 388.812 117.4C389.185 117.267 389.565 117.14 389.952 117.02L390.145 117.687C389.819 117.787 389.479 117.893 389.172 118.007C389.379 118.333 389.592 118.673 389.839 118.96L389.265 119.347ZM410.819 118.2C410.173 117.879 409.505 117.607 408.819 117.387L408.379 117.247L408.572 116.58L409.025 116.727C409.74 116.954 410.435 117.237 411.105 117.573L410.819 118.2ZM392.699 117.007L392.559 116.34C393.419 116.147 394.312 115.987 395.225 115.86L395.325 116.527C394.445 116.667 393.572 116.833 392.719 117.027L392.699 117.007ZM405.832 116.647C404.999 116.5 404.119 116.387 403.219 116.307L403.272 115.64C404.199 115.72 405.099 115.833 405.939 115.987L405.832 116.647ZM397.932 116.26L397.885 115.593C398.679 115.547 399.472 115.52 400.259 115.52H400.585V116.187H400.265C399.512 116.207 398.725 116.227 397.952 116.28L397.932 116.26ZM386.665 114.667C386.305 113.853 385.999 113.007 385.699 112.147L386.365 111.94C386.645 112.78 386.959 113.607 387.305 114.4L386.665 114.667ZM384.979 109.547C384.779 108.687 384.612 107.793 384.485 106.88L385.152 106.787C385.279 107.667 385.439 108.54 385.632 109.387L384.979 109.547ZM384.232 104.213C384.199 103.613 384.179 103 384.179 102.387C384.179 102.1 384.179 101.807 384.179 101.52H384.845C384.845 101.807 384.845 102.087 384.845 102.373C384.845 102.973 384.845 103.58 384.892 104.16L384.232 104.213ZM385.025 98.88L384.359 98.8133C384.452 97.9333 384.579 97.0333 384.732 96.1467L385.399 96.26C385.219 97.1467 385.092 98 385.005 98.8933L385.025 98.88ZM385.939 93.6733L385.272 93.5133C385.485 92.6533 385.732 91.7867 386.005 90.92L386.672 91.1267C386.372 92 386.125 92.8467 385.919 93.6867L385.939 93.6733ZM387.539 88.6267L386.919 88.3867C387.245 87.5533 387.585 86.72 387.992 85.9133L388.592 86.2067C388.192 87.0067 387.839 87.82 387.519 88.6667L387.539 88.6267ZM389.832 83.8733L389.252 83.5333C389.705 82.7667 390.192 82 390.699 81.2667L391.245 81.6467C390.725 82.38 390.252 83.1267 389.812 83.8867L389.832 83.8733ZM392.839 79.5333L392.319 79.1133C392.879 78.4467 393.479 77.74 394.099 77.1133L394.579 77.5733C393.952 78.2 393.365 78.8667 392.819 79.5467L392.839 79.5333ZM396.465 75.6933L396.019 75.2C396.685 74.6067 397.352 74.02 398.065 73.4533L398.479 73.98C397.765 74.5467 397.085 75.1267 396.445 75.7067L396.465 75.6933ZM400.605 72.4L400.225 71.8467C400.952 71.3467 401.712 70.8533 402.485 70.3867L402.825 70.9533C402.052 71.4267 401.332 71.9133 400.585 72.4133L400.605 72.4ZM405.132 69.6467L404.819 69.06C405.605 68.64 406.419 68.24 407.232 67.8667L407.512 68.4733C406.665 68.8533 405.885 69.2533 405.112 69.66L405.132 69.6467ZM409.952 67.4333L409.705 66.8067C410.545 66.48 411.392 66.14 412.232 65.8933L412.445 66.56C411.599 66.8133 410.759 67.12 409.932 67.4467L409.952 67.4333Z" fill="#263238"/>
<path d="M415.092 65.7467L414.926 65.08C415.752 64.8667 416.259 64.7733 416.259 64.7733L416.379 65.44C416.379 65.44 415.899 65.54 415.092 65.7467Z" fill="#263238"/>
<path d="M426.879 61.44C425.179 56.1733 413.792 58.0667 416.012 64.9533C418.232 71.84 428.579 66.7133 426.879 61.44Z" fill="#263238"/>
<path d="M409.818 59.3333C409.905 57.02 413.118 55.24 417.665 56.06C422.212 56.88 426.485 59.9467 426.485 59.9467C426.485 59.9467 421.998 62.6667 417.405 63.1667C412.812 63.6667 409.732 61.64 409.818 59.3333Z" fill="#EBEBEB"/>
<path d="M426.485 59.9333C424.125 59.9333 421.772 59.8667 419.418 59.7933C417.065 59.72 414.705 59.6 412.352 59.4133C414.712 59.4133 417.072 59.4733 419.425 59.5467C421.778 59.62 424.138 59.74 426.485 59.9333Z" fill="#263238"/>
<path d="M414.385 57.2733C415.724 57.9143 416.988 58.7037 418.151 59.6267C417.481 59.3121 416.831 58.9558 416.205 58.56C415.574 58.1669 414.966 57.7373 414.385 57.2733Z" fill="#263238"/>
<path d="M420.566 59.7133C419.36 60.6908 418.053 61.5356 416.666 62.2333C417.878 61.2547 419.192 60.4098 420.586 59.7133H420.566Z" fill="#263238"/>
<path d="M421.252 58.4133C421.925 58.7364 422.514 59.211 422.972 59.8C422.636 59.6412 422.32 59.442 422.032 59.2067C421.743 58.9728 421.481 58.7067 421.252 58.4133Z" fill="#263238"/>
<path d="M414.153 73.0333C415.573 74.86 419.22 74.42 422.426 71.1C425.633 67.78 427.333 62.7867 427.333 62.7867C427.333 62.7867 422.08 63.1867 418.073 65.4533C414.066 67.72 412.726 71.2 414.153 73.0333Z" fill="#EBEBEB"/>
<path d="M427.332 62.7867C425.412 64.12 423.545 65.6 421.672 67.0333C419.799 68.4667 417.965 69.9467 416.172 71.4733C418.092 70.14 419.959 68.6667 421.825 67.2333C423.692 65.8 425.512 64.32 427.332 62.7867Z" fill="#263238"/>
<path d="M419.053 72C419.409 71.3524 419.727 70.6846 420.006 70C420.29 69.3135 420.53 68.6099 420.726 67.8933C420.369 68.5404 420.05 69.2082 419.773 69.8933C419.492 70.5809 419.251 71.2843 419.053 72Z" fill="#263238"/>
<path d="M422.665 66.4267C421.105 66.3433 419.54 66.426 417.998 66.6733C418.775 66.72 419.554 66.72 420.331 66.6733C421.113 66.6352 421.892 66.5529 422.665 66.4267Z" fill="#263238"/>
<path d="M423.951 67.0867C424.129 66.7574 424.268 66.4084 424.365 66.0467C424.463 65.6876 424.521 65.3187 424.538 64.9467C424.183 65.6066 423.983 66.3382 423.951 67.0867Z" fill="#263238"/>
<path d="M426.877 61.44C426.501 61.5623 426.097 61.57 425.716 61.4623C425.335 61.3547 424.994 61.1363 424.738 60.8351C424.481 60.5338 424.319 60.1631 424.273 59.7699C424.227 59.3767 424.299 58.9787 424.48 58.6264C424.66 58.274 424.941 57.9831 425.287 57.7905C425.632 57.5979 426.028 57.5122 426.422 57.5444C426.817 57.5765 427.193 57.725 427.503 57.9711C427.813 58.2172 428.043 58.5497 428.164 58.9267C428.326 59.4306 428.281 59.9781 428.04 60.4492C427.799 60.9202 427.381 61.2765 426.877 61.44Z" fill="#455A64"/>
<path d="M428.106 65.2467C427.73 65.3684 427.326 65.3759 426.945 65.2681C426.565 65.1603 426.225 64.9422 425.968 64.6412C425.712 64.3402 425.55 63.9698 425.504 63.577C425.458 63.1842 425.529 62.7866 425.709 62.4343C425.889 62.0821 426.169 61.7911 426.514 61.5981C426.86 61.4051 427.254 61.3188 427.648 61.3501C428.043 61.3814 428.419 61.5289 428.729 61.7739C429.04 62.0189 429.271 62.3505 429.393 62.7267C429.474 62.9766 429.505 63.2401 429.484 63.502C429.463 63.764 429.391 64.0193 429.271 64.2533C429.152 64.4873 428.988 64.6955 428.788 64.866C428.588 65.0364 428.356 65.1658 428.106 65.2467Z" fill="#455A64"/>
<path d="M209.54 63.5467C209.221 66.6088 208.057 69.5219 206.178 71.9609C204.299 74.3999 201.78 76.2689 198.9 77.3593C196.021 78.4497 192.896 78.7186 189.873 78.1361C186.85 77.5535 184.048 76.1423 181.78 74.06L173.467 75.28L177.627 68.0933C176.675 65.7549 176.27 63.2305 176.44 60.7117C176.61 58.1929 177.353 55.7461 178.61 53.5571C179.868 51.3681 181.608 49.4945 183.698 48.0786C185.788 46.6627 188.173 45.7417 190.672 45.3857C193.171 45.0296 195.719 45.2478 198.121 46.0237C200.524 46.7996 202.718 48.1127 204.536 49.8634C206.355 51.6141 207.751 53.7563 208.618 56.1273C209.485 58.4983 209.801 61.0356 209.54 63.5467Z" fill="white"/>
<path d="M209.54 63.5467C209.228 66.6072 208.074 69.5214 206.207 71.9667C205.295 73.2034 204.195 74.2898 202.947 75.1867C201.726 76.1171 200.379 76.8691 198.947 77.42C197.514 77.9845 196.008 78.3436 194.474 78.4867C193.707 78.5555 192.936 78.5711 192.167 78.5333C191.395 78.5135 190.626 78.4333 189.867 78.2934C186.803 77.7296 183.957 76.3238 181.647 74.2333L181.84 74.2933L173.54 75.5667L172.934 75.66L173.24 75.1267L177.374 67.9267V68.2133C176.398 65.8318 175.984 63.2578 176.162 60.6904C176.34 58.123 177.106 55.6309 178.4 53.4067C179.693 51.1895 181.471 49.2933 183.6 47.86C185.726 46.4457 188.145 45.5311 190.674 45.1847C193.204 44.8384 195.779 45.0692 198.207 45.86C200.609 46.6772 202.798 48.0211 204.614 49.7933C206.425 51.5612 207.811 53.7184 208.664 56.1014C209.518 58.4845 209.817 61.0306 209.54 63.5467ZM209.54 63.5467C209.81 61.043 209.5 58.5109 208.635 56.1459C207.771 53.7808 206.374 51.6461 204.553 49.9066C202.733 48.1671 200.537 46.8692 198.135 46.1133C195.733 45.3573 193.189 45.1634 190.7 45.5467C188.236 45.9114 185.889 46.8374 183.84 48.2533C181.809 49.6804 180.112 51.532 178.867 53.68C177.641 55.8327 176.919 58.235 176.754 60.7067C176.591 63.1951 176.992 65.6881 177.927 68L177.987 68.1467L177.907 68.2867L173.72 75.46L173.427 75.02L181.747 73.8533H181.86L181.94 73.9267C184.164 75.9967 186.92 77.4071 189.9 78C190.643 78.1513 191.396 78.2427 192.154 78.2733C192.91 78.3267 193.67 78.3267 194.427 78.2733C195.945 78.151 197.439 77.8213 198.867 77.2934C200.298 76.7722 201.646 76.0445 202.867 75.1333C204.11 74.2438 205.211 73.1717 206.134 71.9533C208.025 69.52 209.204 66.61 209.54 63.5467Z" fill="#263238"/>
<path d="M184.893 69.5667C184.881 69.346 184.913 69.125 184.989 68.9174C185.066 68.7099 185.184 68.5202 185.336 68.3602C185.489 68.2001 185.672 68.0731 185.876 67.9871C186.08 67.9011 186.299 67.8578 186.52 67.86C186.973 67.86 187.407 68.0398 187.727 68.3599C188.047 68.6799 188.227 69.114 188.227 69.5667C188.227 70.0193 188.047 70.4534 187.727 70.7735C187.407 71.0935 186.973 71.2733 186.52 71.2733C186.299 71.2755 186.08 71.2323 185.876 71.1462C185.672 71.0602 185.489 70.9332 185.336 70.7732C185.184 70.6131 185.066 70.4235 184.989 70.2159C184.913 70.0084 184.881 69.7874 184.893 69.5667ZM185.56 65.6267L185.173 52.4H187.84L187.453 65.6267H185.56Z" fill="#1DB954"/>
<path d="M191.233 69.5667C191.22 69.3465 191.253 69.1261 191.329 68.919C191.404 68.7119 191.522 68.5225 191.674 68.3626C191.825 68.2027 192.008 68.0756 192.211 67.9891C192.414 67.9027 192.633 67.8587 192.853 67.86C193.306 67.86 193.74 68.0398 194.06 68.3599C194.38 68.6799 194.56 69.114 194.56 69.5667C194.56 70.0193 194.38 70.4534 194.06 70.7735C193.74 71.0935 193.306 71.2733 192.853 71.2733C192.633 71.2746 192.414 71.2307 192.211 71.1442C192.008 71.0578 191.825 70.9307 191.674 70.7707C191.522 70.6108 191.404 70.4214 191.329 70.2143C191.253 70.0072 191.22 69.7868 191.233 69.5667ZM191.9 65.6267L191.533 52.4H194.2L193.813 65.6267H191.9Z" fill="#1DB954"/>
<path d="M197.567 69.5667C197.554 69.346 197.587 69.125 197.663 68.9174C197.739 68.7099 197.857 68.5202 198.01 68.3602C198.162 68.2001 198.346 68.0731 198.55 67.9871C198.754 67.9011 198.973 67.8578 199.194 67.86C199.646 67.86 200.081 68.0398 200.401 68.3599C200.721 68.6799 200.9 69.114 200.9 69.5667C200.9 70.0193 200.721 70.4534 200.401 70.7735C200.081 71.0935 199.646 71.2733 199.194 71.2733C198.973 71.2755 198.754 71.2323 198.55 71.1462C198.346 71.0602 198.162 70.9332 198.01 70.7732C197.857 70.6131 197.739 70.4235 197.663 70.2159C197.587 70.0084 197.554 69.7874 197.567 69.5667ZM198.234 65.6267L197.847 52.4H200.514L200.134 65.6267H198.234Z" fill="#1DB954"/>
</svg>
